<?xml version="1.0" encoding="iso-8859-1"?>
<!-- Generator: Adobe Illustrator 19.0.0, SVG Export Plug-In . SVG Version: 6.00 Build 0)  -->
<svg version="1.1" id="Capa_1" xmlns="http://www.w3.org/2000/svg" xmlns:xlink="http://www.w3.org/1999/xlink" x="0px" y="0px"
	 viewBox="0 0 480.002 480.002" style="enable-background:new 0 0 480.002 480.002;" xml:space="preserve">
<g>
	<g>
		<path d="M195.353,299.344l-17.64-5.864c-5.802-1.933-9.715-7.364-9.712-13.48c0-8.837,7.163-16,16-16s16,7.163,16,16h16
			c-0.055-14.547-9.914-27.227-24-30.864V232h-16v17.136c-14.085,3.637-23.945,16.317-24,30.864
			c-0.01,13.003,8.31,24.55,20.648,28.656l17.64,5.864c5.802,1.933,9.715,7.364,9.712,13.48c0,8.837-7.163,16-16,16s-16-7.163-16-16
			h-16c0.055,14.547,9.915,27.227,24,30.864V376h16v-17.136c14.086-3.637,23.945-16.317,24-30.864
			C216.011,314.997,207.691,303.45,195.353,299.344z"/>
	</g>
</g>
<g>
	<g>
		<path d="M472.001,176H310.273c-16.906-20.834-38.159-37.724-62.272-49.488V92l28.8-21.6c2.014-1.511,3.2-3.882,3.2-6.4V8
			c0-4.418-3.582-8-8-8h-32c-2.122,0-4.156,0.844-5.656,2.344l-10.344,10.344L213.657,2.344c-1.5-1.5-3.534-2.344-5.656-2.344h-48
			c-2.122,0-4.156,0.844-5.656,2.344l-10.344,10.344L133.657,2.344c-1.5-1.5-3.534-2.344-5.656-2.344h-32c-4.418,0-8,3.582-8,8v56
			c0,2.518,1.186,4.889,3.2,6.4l28.8,21.6v34.592c-60.56,29.304-120,108.016-120,208.968c0,91.792,67.064,144.44,184,144.44
			c18.981,0.068,37.928-1.614,56.6-5.024c1.213,3.026,4.14,5.013,7.4,5.024h224c4.418,0,8-3.582,8-8V184
			C480.001,179.582,476.419,176,472.001,176z M104.001,60V16h20.688l13.656,13.656c3.124,3.123,8.188,3.123,11.312,0L163.313,16
			h41.376l13.656,13.656c3.124,3.123,8.188,3.123,11.312,0L243.313,16h20.688v44l-26.664,20H130.665L104.001,60z M232.001,96v24h-96
			V96H232.001z M240.001,371.784c-37.434,30.996-92.907,25.778-123.904-11.656c-30.996-37.434-25.778-92.907,11.656-123.904
			c32.559-26.96,79.688-26.96,112.247,0V371.784z M240.001,184v32.456c-48.347-31.01-112.679-16.956-143.689,31.391
			c-31.01,48.347-16.956,112.679,31.391,143.689c34.216,21.947,78.083,21.947,112.299,0v67.28c-18.456,3.53-37.21,5.266-56,5.184
			c-50.512,0-168-12.512-168-128.44c0-76.536,45.872-171.768,122.672-199.56h90.712c22.63,8.59,42.977,22.277,59.464,40h-40.848
			C243.583,176,240.001,179.582,240.001,184z M464.001,464h-208V256h208V464z M464.001,240h-208v-48h208V240z"/>
	</g>
</g>
<g>
	<g>
		<path d="M312.001,272h-32c-4.418,0-8,3.582-8,8v32c0,4.418,3.582,8,8,8h32c4.418,0,8-3.582,8-8v-32
			C320.001,275.582,316.419,272,312.001,272z M304.001,304h-16v-16h16V304z"/>
	</g>
</g>
<g>
	<g>
		<path d="M376.001,272h-32c-4.418,0-8,3.582-8,8v32c0,4.418,3.582,8,8,8h32c4.418,0,8-3.582,8-8v-32
			C384.001,275.582,380.419,272,376.001,272z M368.001,304h-16v-16h16V304z"/>
	</g>
</g>
<g>
	<g>
		<path d="M440.001,272h-32c-4.418,0-8,3.582-8,8v32c0,4.418,3.582,8,8,8h32c4.418,0,8-3.582,8-8v-32
			C448.001,275.582,444.419,272,440.001,272z M432.001,304h-16v-16h16V304z"/>
	</g>
</g>
<g>
	<g>
		<path d="M312.001,336h-32c-4.418,0-8,3.582-8,8v32c0,4.418,3.582,8,8,8h32c4.418,0,8-3.582,8-8v-32
			C320.001,339.582,316.419,336,312.001,336z M304.001,368h-16v-16h16V368z"/>
	</g>
</g>
<g>
	<g>
		<path d="M376.001,336h-32c-4.418,0-8,3.582-8,8v32c0,4.418,3.582,8,8,8h32c4.418,0,8-3.582,8-8v-32
			C384.001,339.582,380.419,336,376.001,336z M368.001,368h-16v-16h16V368z"/>
	</g>
</g>
<g>
	<g>
		<path d="M312.001,400h-32c-4.418,0-8,3.582-8,8v32c0,4.418,3.582,8,8,8h32c4.418,0,8-3.582,8-8v-32
			C320.001,403.582,316.419,400,312.001,400z M304.001,432h-16v-16h16V432z"/>
	</g>
</g>
<g>
	<g>
		<path d="M376.001,400h-32c-4.418,0-8,3.582-8,8v32c0,4.418,3.582,8,8,8h32c4.418,0,8-3.582,8-8v-32
			C384.001,403.582,380.419,400,376.001,400z M368.001,432h-16v-16h16V432z"/>
	</g>
</g>
<g>
	<g>
		<path d="M440.001,336h-32c-4.418,0-8,3.582-8,8v96c0,4.418,3.582,8,8,8h32c4.418,0,8-3.582,8-8v-96
			C448.001,339.582,444.419,336,440.001,336z M432.001,432h-16v-80h16V432z"/>
	</g>
</g>
<g>
	<g>
		<rect x="432.001" y="208" width="16" height="16"/>
	</g>
</g>
<g>
	<g>
		<rect x="400.001" y="208" width="16" height="16"/>
	</g>
</g>
<g>
	<g>
		<rect x="368.001" y="208" width="16" height="16"/>
	</g>
</g>
<g>
</g>
<g>
</g>
<g>
</g>
<g>
</g>
<g>
</g>
<g>
</g>
<g>
</g>
<g>
</g>
<g>
</g>
<g>
</g>
<g>
</g>
<g>
</g>
<g>
</g>
<g>
</g>
<g>
</g>
</svg>
