<?xml version="1.0" encoding="iso-8859-1"?>
<!-- Generator: Adobe Illustrator 19.0.0, SVG Export Plug-In . SVG Version: 6.00 Build 0)  -->
<svg version="1.1" id="Capa_1" xmlns="http://www.w3.org/2000/svg" xmlns:xlink="http://www.w3.org/1999/xlink" x="0px" y="0px"
	 viewBox="0 0 177.809 177.809" style="enable-background:new 0 0 177.809 177.809;" xml:space="preserve">
<g>
	<g>
		<path d="M132.534,152.942C126.145,143.152,32.616,20.01,18.596,3.107c-1.946-2.348-4.265-1.612-5.133-0.756
			c-1.508,1.486-2.412,3.655,0.745,16.652C16.099,26.79,30.86,70.202,35.89,82.675c10.235,25.374,16.786,24.537,20.539,25.02
			c1.833,0.236,3.616-0.194,5.157-1.247c4.197-2.864,5.597-3.699,7.218-4.667c0.569-0.339,1.176-0.702,1.936-1.169
			c4.537,7.434,10.138,18.967,15.576,30.164c7.317,15.067,14.884,30.648,20.93,38.711c3.845,5.125,8.003,6.633,10.815,6.994
			c5.382,0.692,10.948-2.192,14.183-7.348C135.527,163.9,135.638,157.695,132.534,152.942z M126.528,165.544
			c-1.839,2.933-4.824,4.597-7.604,4.239c-2.182-0.28-4.353-1.785-6.275-4.349c-5.658-7.543-13.08-22.827-20.259-37.609
			c-6.558-13.503-12.752-26.258-17.819-33.751c-0.565-0.835-1.438-1.337-2.366-1.457c-0.763-0.098-1.564,0.063-2.26,0.513
			c-2.266,1.463-7.795,4.76-12.163,7.741c-0.2,0.137-0.317,0.15-0.49,0.129c-2.315,1.198-2.462-0.561-6.369-5.864
			C44.628,86.595,26.858,36.42,21.718,19.94c-1.994-6.391,0.13-2.867,1.692-0.857c16.886,21.724,97.265,128.039,103.472,137.55
			C128.851,159.647,127.99,163.213,126.528,165.544z"/>
	</g>
</g>
<g>
	<g>
		<path d="M176.857,35.657c-1.299-1.338-3.436-1.37-4.772-0.071c-8.615,8.358-16.65,16.508-23.106,23.057
			c-1.649,1.674-3.16,3.206-4.528,4.587l-6.365-6.37l26.897-26.098c1.338-1.298,1.369-3.436,0.071-4.773
			c-1.298-1.337-3.434-1.37-4.772-0.071l-26.969,26.167l-5.992-5.997l27.058-26.254c1.338-1.299,1.37-3.436,0.072-4.772
			c-1.298-1.338-3.436-1.37-4.772-0.072l-27.129,26.323l-5.837-5.842L146.03,7.023c1.338-1.298,1.37-3.435,0.071-4.771
			c-1.298-1.339-3.434-1.37-4.771-0.072l-33.74,32.738c-8.623,8.366-7.957,20.653,1.438,31.985l-19.189,18.9
			c-1.338,1.298-1.37,3.435-0.072,4.771c0.522,0.538,1.181,0.865,1.867,0.979c1.021,0.17,2.106-0.131,2.906-0.907l19.203-18.914
			c3.781,3.148,8.251,5.231,12.947,6.011c0.604,0.102,1.215,0.18,1.826,0.236c6.129,0.57,11.745-1.144,15.412-4.702
			c2.342-2.271,5.657-5.635,9.856-9.894c6.433-6.524,14.438-14.645,23-22.951C178.122,39.132,178.154,36.995,176.857,35.657z
			 M139.227,68.432c-2.217,2.149-5.987,3.206-10.087,2.824c-4.737-0.44-9.29-2.684-12.812-6.314
			c-6.9-7.112-11.598-17.279-4.449-24.758l27.792,27.815C139.519,68.147,139.371,68.292,139.227,68.432z"/>
	</g>
</g>
<g>
	<g>
		<path d="M74.589,116.551c-1.394-1.239-3.527-1.113-4.765,0.281c-13.581,15.281-38.227,42.276-46.543,49.652
			c-4.134,3.667-10.646,2.188-14.133-1.496c-3.647-3.852-3.097-8.73,1.509-13.388c11.695-11.819,28.924-25.353,41.919-35.153
			c1.488-1.122,1.785-3.238,0.663-4.727s-3.238-1.785-4.727-0.663c-13.162,9.926-30.649,23.663-42.653,35.795
			c-8.742,8.837-6.332,17.792-1.612,22.776c2.667,2.815,6.444,4.841,10.456,5.507c4.464,0.741,9.219-0.199,13.057-3.604
			c9.61-8.523,37.266-39.142,47.11-50.219C76.108,119.922,75.982,117.787,74.589,116.551z"/>
	</g>
</g>
<g>
</g>
<g>
</g>
<g>
</g>
<g>
</g>
<g>
</g>
<g>
</g>
<g>
</g>
<g>
</g>
<g>
</g>
<g>
</g>
<g>
</g>
<g>
</g>
<g>
</g>
<g>
</g>
<g>
</g>
</svg>
